<svg preserveAspectRatio="none" width="100%" height="100%" overflow="visible" style="display: block;" viewBox="0 0 24 24" fill="none" xmlns="http://www.w3.org/2000/svg">
<g id="mdi:bell-badge">
<circle id="Ellipse 31212" cx="17.5" cy="6.5" r="3.5" fill="#FA3030"/>
<path id="Vector" d="M19 11.79C18.5 11.92 18 12 17.5 12C16.0421 11.9974 14.6447 11.417 13.6138 10.3862C12.583 9.35529 12.0026 7.95788 12 6.5C12 5.03 12.58 3.7 13.5 2.71C13.3185 2.48754 13.0897 2.30837 12.8302 2.18554C12.5707 2.06272 12.2871 1.99933 12 2C10.9 2 10 2.9 10 4V4.29C7.03 5.17 5 7.9 5 11V17L3 19V20H21V19L19 17V11.79ZM12 23C13.11 23 14 22.11 14 21H10C10 21.5304 10.2107 22.0391 10.5858 22.4142C10.9609 22.7893 11.4696 23 12 23Z" fill="#050A0A"/>
</g>
</svg>
