<svg preserveAspectRatio="none" width="100%" height="100%" overflow="visible" style="display: block;" viewBox="0 0 24 24" fill="none" xmlns="http://www.w3.org/2000/svg">
<g id="boxicons:search">
<path id="Vector" d="M18 10C18 5.59 14.41 2 10 2C5.59 2 2 5.59 2 10C2 14.41 5.59 18 10 18C11.85 18 13.54 17.37 14.9 16.31L20 21.41L21.41 20L16.31 14.9C17.4015 13.4995 17.9961 11.7756 18 10ZM4 10C4 6.69 6.69 4 10 4C13.31 4 16 6.69 16 10C16 13.31 13.31 16 10 16C6.69 16 4 13.31 4 10Z" fill="#050A0A"/>
</g>
</svg>
