<svg preserveAspectRatio="none" overflow="visible" style="display: block;" width="24" height="24" viewBox="0 0 24 24" fill="none" xmlns="http://www.w3.org/2000/svg">
<g id="material-symbols:schedule">
<path id="Vector" d="M14.31 15.29L15.29 14.31L12.7 11.72V8.5H11.3V12.28L14.31 15.29ZM12 19C11.0317 19 10.1217 18.8161 9.27 18.4484C8.41833 18.0807 7.6775 17.582 7.0475 16.9525C6.4175 16.323 5.91887 15.5821 5.5516 14.73C5.18433 13.8779 5.00047 12.9679 5 12C4.99953 11.0321 5.1834 10.1221 5.5516 9.27C5.9198 8.41787 6.41843 7.67703 7.0475 7.0475C7.67656 6.41797 8.4174 5.91933 9.27 5.5516C10.1226 5.18387 11.0326 5 12 5C12.9674 5 13.8774 5.18387 14.73 5.5516C15.5826 5.91933 16.3234 6.41797 16.9525 7.0475C17.5816 7.67703 18.0804 8.41787 18.4491 9.27C18.8178 10.1221 19.0014 11.0321 19 12C18.9986 12.9679 18.8147 13.8779 18.4484 14.73C18.0821 15.5821 17.5834 16.323 16.9525 16.9525C16.3216 17.582 15.5807 18.0809 14.73 18.4491C13.8793 18.8173 12.9693 19.0009 12 19Z" fill="white"/>
</g>
</svg>
