<svg preserveAspectRatio="none" width="100%" height="100%" overflow="visible" style="display: block;" viewBox="0 0 24 24" fill="none" xmlns="http://www.w3.org/2000/svg">
<g id="Interface / Filter">
<path id="Vector" d="M19 7.27008C19 6.82554 18.9997 6.6031 18.9111 6.43331C18.8332 6.28395 18.7094 6.16261 18.5565 6.08651C18.3827 6 18.1547 6 17.6997 6H7.29968C6.84464 6 6.61735 6 6.44354 6.08651C6.29066 6.16261 6.16645 6.28395 6.08856 6.43331C6 6.6031 6 6.82554 6 7.27008V7.85528C6 8.04942 6 8.14657 6.02245 8.23792C6.04235 8.31891 6.07526 8.39628 6.11981 8.4673C6.17004 8.54737 6.24042 8.61613 6.38086 8.75333L10.4943 12.7719C10.6349 12.9092 10.7047 12.9774 10.755 13.0575C10.7995 13.1285 10.8329 13.2062 10.8528 13.2872C10.875 13.3776 10.875 13.4736 10.875 13.6638V17.4388C10.875 18.1192 10.875 18.4596 11.0217 18.6645C11.1498 18.8434 11.3474 18.9627 11.5685 18.9947C11.8217 19.0312 12.1333 18.8792 12.7563 18.5749L13.4063 18.2574C13.6671 18.13 13.7973 18.066 13.8926 17.971C13.9768 17.8869 14.0413 17.786 14.0806 17.6748C14.125 17.549 14.125 17.4062 14.125 17.1213V13.6697C14.125 13.4756 14.125 13.3785 14.1474 13.2872C14.1674 13.2062 14.2003 13.1285 14.2448 13.0575C14.2947 12.978 14.3644 12.9099 14.5031 12.7744L14.5059 12.7719L18.6193 8.75333C18.7599 8.61605 18.8297 8.5474 18.88 8.4673C18.9245 8.39628 18.9579 8.31891 18.9778 8.23792C19 8.1475 19 8.0514 19 7.86119V7.27008Z" stroke="#525252" stroke-width="1.5" stroke-linecap="round" stroke-linejoin="round"/>
</g>
</svg>
