<svg preserveAspectRatio="none" width="100%" height="100%" overflow="visible" style="display: block;" viewBox="0 0 13.5 13.5" fill="none" xmlns="http://www.w3.org/2000/svg">
<g id="Icon">
<path id="Vector" d="M10.1248 4.50013C11.0568 4.50013 11.8123 3.74461 11.8123 2.81263C11.8123 1.88065 11.0568 1.12513 10.1248 1.12513C9.19282 1.12513 8.4373 1.88065 8.4373 2.81263C8.4373 3.74461 9.19282 4.50013 10.1248 4.50013Z" stroke="white" stroke-width="0.84375" stroke-linecap="round" stroke-linejoin="round"/>
<path id="Vector_2" d="M3.375 8.4375C4.30698 8.4375 5.0625 7.68198 5.0625 6.75C5.0625 5.81802 4.30698 5.0625 3.375 5.0625C2.44302 5.0625 1.6875 5.81802 1.6875 6.75C1.6875 7.68198 2.44302 8.4375 3.375 8.4375Z" stroke="white" stroke-width="0.84375" stroke-linecap="round" stroke-linejoin="round"/>
<path id="Vector_3" d="M10.125 12.375C11.057 12.375 11.8125 11.6195 11.8125 10.6875C11.8125 9.75552 11.057 9 10.125 9C9.19302 9 8.4375 9.75552 8.4375 10.6875C8.4375 11.6195 9.19302 12.375 10.125 12.375Z" stroke="white" stroke-width="0.84375" stroke-linecap="round" stroke-linejoin="round"/>
<path id="Vector_4" d="M4.83203 7.60156L8.67391 9.84031" stroke="white" stroke-width="0.84375" stroke-linecap="round" stroke-linejoin="round"/>
<path id="Vector_5" d="M8.66828 3.66016L4.83203 5.89891" stroke="white" stroke-width="0.84375" stroke-linecap="round" stroke-linejoin="round"/>
</g>
</svg>
