<svg preserveAspectRatio="none" overflow="visible" style="display: block;" width="328" height="44.5698" viewBox="0 0 328 44.5698" fill="none" xmlns="http://www.w3.org/2000/svg">
<path id="Subtract" opacity="0.9" d="M164 0C254.575 0 328 10.0736 328 22.5C328 33.4199 271.299 42.522 196.087 44.5687C194.402 44.6145 193 43.2598 193 41.5743C193 39.9463 194.299 38.6159 195.927 38.5716C228.173 37.6941 256.928 35.5146 279.15 32.4658C293.861 30.4476 305.462 28.0805 313.261 25.5508C316.64 24.4546 316.64 20.5454 313.261 19.4492C305.462 16.9195 293.861 14.5524 279.15 12.5342C249.818 8.50985 209.103 6 164 6C118.897 6 78.1825 8.50985 48.8496 12.5342C34.139 14.5524 22.5383 16.9195 14.7393 19.4492C11.3594 20.5455 11.3594 24.4545 14.7393 25.5508C22.5383 28.0805 34.139 30.4476 48.8496 32.4658C71.072 35.5146 99.827 37.6941 132.073 38.5716C133.701 38.6159 135 39.9463 135 41.5743C135 43.2598 133.598 44.6145 131.913 44.5687C56.7008 42.522 0 33.4199 0 22.5C0 10.0736 73.4253 0 164 0Z" fill="url(#paint0_radial_0_144)"/>
<defs>
<radialGradient id="paint0_radial_0_144" cx="0" cy="0" r="1" gradientUnits="userSpaceOnUse" gradientTransform="translate(159 4) rotate(89.304) scale(41.1612 224.238)">
<stop offset="0.396233" stop-color="#F2F2F2" stop-opacity="0"/>
<stop offset="1" stop-color="white"/>
</radialGradient>
</defs>
</svg>
