<svg preserveAspectRatio="none" overflow="visible" style="display: block;" width="24" height="24" viewBox="0 0 24 24" fill="none" xmlns="http://www.w3.org/2000/svg">
<g id="si:left-right-fill">
<path id="Vector" d="M16.293 7.293C16.4805 7.10553 16.7348 7.00021 17 7.00021C17.2652 7.00021 17.5195 7.10553 17.707 7.293L21.707 11.293C21.8945 11.4805 21.9998 11.7348 21.9998 12C21.9998 12.2652 21.8945 12.5195 21.707 12.707L17.707 16.707C17.5184 16.8892 17.2658 16.99 17.0036 16.9877C16.7414 16.9854 16.4906 16.8802 16.3052 16.6948C16.1198 16.5094 16.0146 16.2586 16.0123 15.9964C16.01 15.7342 16.1108 15.4816 16.293 15.293L18.586 13H5.414L7.707 15.293C7.80251 15.3852 7.87869 15.4956 7.9311 15.6176C7.98351 15.7396 8.0111 15.8708 8.01225 16.0036C8.0134 16.1364 7.9881 16.2681 7.93782 16.391C7.88754 16.5138 7.81329 16.6255 7.7194 16.7194C7.6255 16.8133 7.51385 16.8875 7.39095 16.9378C7.26806 16.9881 7.13638 17.0134 7.0036 17.0123C6.87082 17.0111 6.7396 16.9835 6.6176 16.9311C6.49559 16.8787 6.38525 16.8025 6.293 16.707L2.293 12.707C2.10553 12.5195 2.00021 12.2652 2.00021 12C2.00021 11.7348 2.10553 11.4805 2.293 11.293L6.293 7.293C6.38525 7.19749 6.49559 7.12131 6.6176 7.0689C6.7396 7.01649 6.87082 6.9889 7.0036 6.98775C7.13638 6.9866 7.26806 7.0119 7.39095 7.06218C7.51385 7.11246 7.6255 7.18671 7.7194 7.2806C7.81329 7.3745 7.88754 7.48615 7.93782 7.60905C7.9881 7.73194 8.0134 7.86362 8.01225 7.9964C8.0111 8.12918 7.98351 8.2604 7.9311 8.3824C7.87869 8.50441 7.80251 8.61475 7.707 8.707L5.414 11H18.586L16.293 8.707C16.1055 8.51947 16.0002 8.26516 16.0002 8C16.0002 7.73484 16.1055 7.48053 16.293 7.293Z" fill="white"/>
</g>
</svg>
