<svg preserveAspectRatio="none" width="100%" height="100%" overflow="visible" style="display: block;" viewBox="0 0 144 21" fill="none" xmlns="http://www.w3.org/2000/svg">
<path id="Vector" d="M91.0823 0.0427222C91.2262 0.0404097 91.8272 0.0064931 91.9734 0.0303889C92.5468 0.118264 93.3039 0.357221 93.7211 1.01243C94.2049 1.58284 94.5685 2.36138 92.6938 3.01428C91.9366 3.29332 91.6258 3.35421 91.204 3.77894C90.822 4.16127 91.2056 4.49582 91.6634 4.68698C93.1875 5.13252 93.7946 5.00688 95.2789 4.93442C96.2565 4.81956 97.7677 4.97836 98.253 5.56188C98.6297 6.04519 98.4972 6.82912 98.1183 7.11818C97.4293 7.60843 96.8062 7.85972 95.3654 7.90135C92.8139 7.97304 90.9522 7.69939 89.0613 8.47331C87.4698 9.10539 86.6897 10.7349 87.1651 12.1933C87.727 13.4074 88.6862 13.6995 90.2188 13.6518C91.7514 13.604 93.1064 13.0413 94.5027 12.2758C95.8699 11.2907 96.7396 10.6077 97.7064 9.55709C98.4513 8.58199 99.9356 6.97789 100.803 6.42444C102.634 5.19188 104.403 4.80877 106.29 4.80954C109.236 4.90436 111.927 5.1094 114.335 5.53644C117.391 6.07833 119.48 6.85302 123.349 6.85302C131.498 6.62485 134.622 4.6099 136.363 6.74818C137.528 8.67141 136.065 10.1653 135.909 11.2082C135.827 12.1139 136.063 12.5579 137.528 13.3619C140.083 14.5467 142.472 15.5742 143.111 15.8047C143.918 16.0876 144.53 17.3032 143.313 17.9507C142.664 18.2937 139.941 18.286 138.528 18.1634C136.209 18.0493 132.621 17.6184 129.551 16.2826C128.413 15.7885 128.337 14.8727 128.82 14.2491C129.05 13.9038 129.67 13.6209 130.16 12.8061C130.985 11.1111 129.813 9.82611 128.337 9.73901C127.414 9.72668 126.037 10.0551 125.245 10.4613C122.601 11.8164 121.39 14.4519 120.665 15.2867C118.716 17.5306 117.014 18.158 115.226 18.158C113.439 18.158 112.751 15.8594 114.088 14.5829C114.778 13.9501 117.528 10.913 116.251 10.3256C115.719 9.98182 115.079 10.5091 114.814 10.849C114.441 11.1943 114.018 12.1957 113.789 12.716C112.578 15.4609 110.521 17.1506 107.961 17.7433C106.004 18.2382 102.685 18.3646 100.369 17.4982C98.3204 16.7913 97.4661 15.6289 96.2558 15.6536C94.6566 15.6536 92.7971 18.1619 88.7115 18.1619C84.0326 18.1619 83.0672 15.6536 81.7345 15.6536C80.1246 15.6043 78.7504 18.1619 75.9486 18.1619C73.9154 18.1619 73.5112 16.8476 72.1723 16.8476C71.4488 16.8476 70.2125 18.1619 68.3408 18.1619C66.7791 18.1619 66.048 16.8977 64.3555 16.8684C62.4102 16.8391 62.7486 18.1619 56.6496 18.1619C53.8325 18.0763 52.1744 17.2608 50.4734 17.0157C48.3605 16.712 46.759 16.567 44.5084 16.8299C42.0939 17.1105 40.458 18.0632 39.6611 18.0609C37.2068 18.0532 36.7873 15.6652 37.2764 14.6531C37.4785 14.236 37.7534 13.9038 38.0718 13.4429C38.6146 12.6558 39.2232 11.7686 39.1413 10.6756C39.0647 9.73747 38.3153 8.9543 37.2519 8.80553C36.1879 8.65599 34.8658 8.69222 33.9747 8.7616C30.206 9.05528 28.7538 10.8868 26.6662 13.0682C24.7647 14.6947 21.9077 14.7386 19.592 14.2199C17.7394 13.8036 13.9355 14.7949 10.93 15.1911C10.4768 15.2505 10.0512 15.4455 9.71438 15.7569C7.56631 17.7426 7.98276 16.493 5.87449 17.3271C5.5767 17.445 5.31489 17.6385 5.11509 17.8898C4.53023 18.6275 3.73637 19.6558 3.08797 20.469C2.56894 21.1188 0.874832 21.4379 0.17667 19.8253C-0.767991 17.6439 2.24895 13.3295 5.10743 12.5394C7.60535 11.848 9.34999 13.0598 11.0885 12.6466C13.7012 11.8226 14.5487 10.2069 18.0219 9.83691C19.0002 9.73284 20.6239 9.83151 21.7064 10.2485C22.5737 10.5823 23.7672 10.2717 24.0948 8.99824C24.4026 7.79806 24.1323 7.26233 25.7308 5.24815C26.9518 3.70957 29.0654 3.34342 30.7871 2.51401C32.1482 1.89734 33.1855 0.805074 34.4248 0.583075C36.3456 0.186868 38.7363 -0.88613 40.1296 1.51964C40.7956 2.84238 38.0787 3.34805 37.3147 3.66255C35.8235 4.12119 35.3718 4.20367 35.4797 4.76252C35.5724 5.23735 36.4887 5.50869 37.6003 5.65283C39.5041 5.70987 40.9648 5.41619 41.7716 5.27513C44.0422 5.06006 44.7258 5.34758 45.4439 6.325C46.9251 8.34072 44.4043 9.85078 44.3093 11.4009C44.2481 12.4038 45.0358 13.1314 45.9292 13.1338C46.8226 13.1361 47.2245 12.2689 47.8024 11.2159C48.15 10.4019 48.8635 9.09614 49.5578 8.29293C53.0065 4.0549 60.2599 4.85733 62.6108 7.18216C63.6175 8.19426 63.6274 9.79528 62.1791 10.8128C59.9958 12.4069 57.8355 12.7846 56.1789 13.0389C55.4432 13.1515 54.6861 13.6232 54.6876 14.048C54.7167 14.3455 54.9754 15.2219 59.3313 14.6338C61.1127 14.3509 63.2577 12.7167 63.6313 12.3914C64.1541 11.9351 64.4266 11.7062 65.1302 10.849C65.9332 9.87082 66.4476 9.07764 67.2958 7.52904C68.0116 6.14925 70.5118 6.32346 70.7935 8.0347C70.9214 8.82018 70.1115 10.5592 70.2202 11.4487C70.2783 11.9359 70.5593 12.3891 71.197 12.4593C72.6055 12.615 73.8067 9.21639 74.3356 8.2251C75.1402 6.6711 76.8925 6.9725 77.4942 8.12258C78.3393 9.74209 76.2518 11.3146 77.3863 12.719C77.8823 13.0759 78.8637 14.2615 80.7048 11.5613C80.8939 11.2838 81.4512 10.5422 81.6135 10.2485C82.0606 9.44301 82.3829 8.73847 82.441 8.10947C82.4265 7.12743 81.8363 7.22148 80.9467 7.01798C80.4874 6.91468 80.1766 6.53775 79.9393 6.12998C78.3876 3.45673 81.4443 3.44671 82.8567 3.87607C84.3985 4.20136 84.8035 3.8884 85.3148 2.77069C85.4955 2.38682 85.8178 1.96441 86.3529 1.60905C87.6704 0.733387 88.2269 0.644741 89.0598 0.454346C90.0657 0.223868 91.0861 0.0419514 91.0861 0.0419514L91.0823 0.0427222ZM105.507 7.6832C100.071 8.63133 102.084 15.676 106.459 15.151C111.202 14.2576 109.701 7.27929 105.507 7.6832ZM55.3528 7.9977C54.1632 8.2567 53.1106 9.27728 53.1481 9.91322C53.1711 10.9168 54.0537 11.0224 54.6042 11.0664C57.1044 11.2321 59.0626 9.85618 58.5818 8.72305C58.0735 7.46352 56.0525 7.84045 55.3528 7.99847V7.9977Z" fill="#050A0A"/>
</svg>
