<svg preserveAspectRatio="none" width="100%" height="100%" overflow="visible" style="display: block;" viewBox="0 0 22 22" fill="none" xmlns="http://www.w3.org/2000/svg">
<g id="Icon" clip-path="url(#clip0_0_192)">
<path id="Vector" d="M20.618 6.13736C20.2829 5.56322 19.7992 5.08997 19.218 4.76736L13.218 1.45736C12.6601 1.15715 12.0365 1 11.403 1C10.7695 1 10.1458 1.15715 9.58797 1.45736L3.58797 4.76736C3.0067 5.08997 2.52309 5.56322 2.18797 6.13736C1.84796 6.71285 1.6684 7.36894 1.66797 8.03736V14.4474C1.67264 15.113 1.85255 15.7657 2.1896 16.3398C2.52666 16.9138 3.00895 17.3889 3.58797 17.7174L9.58797 21.0174C10.1433 21.3256 10.7679 21.4873 11.403 21.4873C12.0381 21.4873 12.6627 21.3256 13.218 21.0174L19.218 17.7074C19.7985 17.3841 20.2818 16.9112 20.6177 16.3379C20.9536 15.7646 21.1298 15.1118 21.128 14.4474V8.08736C21.1449 7.40232 20.9681 6.7264 20.618 6.13736ZM19.618 14.4474C19.622 14.8451 19.5181 15.2365 19.3173 15.5798C19.1166 15.9232 18.8265 16.2057 18.478 16.3974L12.478 19.7074C12.3726 19.7667 12.2626 19.8134 12.148 19.8474V11.6674L19.448 7.27736C19.54 7.51936 19.584 7.77736 19.578 8.03736L19.618 14.4474Z" fill="#A3A3A3"/>
</g>
<defs>
<clipPath id="clip0_0_192">
<rect width="22" height="22" fill="white"/>
</clipPath>
</defs>
</svg>
