<svg preserveAspectRatio="none" width="100%" height="100%" overflow="visible" style="display: block;" viewBox="0 0 22 22" fill="none" xmlns="http://www.w3.org/2000/svg">
<g id="Icon">
<path id="Vector" d="M19 18.0925C19 18.3332 18.9005 18.564 18.7234 18.7342C18.5463 18.9044 18.306 19 18.0556 19H2.94444C2.69396 19 2.45374 18.9044 2.27662 18.7342C2.0995 18.564 2 18.3332 2 18.0925V8.55518C1.9999 8.4169 2.03269 8.28042 2.09588 8.15617C2.15906 8.03193 2.25096 7.9232 2.36456 7.83829L9.92011 2.1912C10.0859 2.06728 10.29 2 10.5 2C10.71 2 10.9141 2.06728 11.0799 2.1912L18.6354 7.83829C18.749 7.9232 18.8409 8.03193 18.9041 8.15617C18.9673 8.28042 19.0001 8.4169 19 8.55518V18.0925Z" fill="white"/>
</g>
</svg>
