<svg preserveAspectRatio="none" overflow="visible" style="display: block;" width="313.929" height="45" viewBox="0 0 313.929 45" fill="none" xmlns="http://www.w3.org/2000/svg">
<path id="Vector" d="M200.62 0.134529C201.729 0.134529 203.42 0.933166 204.434 2.23609C205.332 3.46599 206.281 5.12259 202.193 6.52135C200.542 7.11918 199.863 7.24925 198.944 8.15741C198.11 8.97659 198.944 9.6908 199.946 10.1015C203.27 11.0553 204.595 10.7861 207.833 10.6309C209.965 10.3845 213.261 10.7245 214.321 11.9726C215.143 13.0063 214.854 14.6857 214.028 15.3041C212.524 16.3537 211.166 16.8899 208.023 16.9812C202.457 17.1341 198.396 16.5499 194.271 18.2043C190.8 19.5574 189.098 23.044 190.135 26.1655C191.798 30.1245 197.454 29.7777 202.632 27.667C204.729 26.8113 208.746 23.8312 210.914 21.8027C213.635 19.4707 220.3 10.4506 231.781 10.2498C237.714 10.2498 245.241 11.1785 250.496 12.0936C257.664 13.312 261.685 14.5397 269.917 14.5146C284.054 14.1449 289.474 12.016 293.546 12.9401C297.405 13.9236 298.008 16.9036 297.791 19.1535C297.574 21.4034 295.805 23.6898 296.763 25.7434C297.442 27.1992 299.419 28.9676 302.569 30.355C306.456 32.0663 310.664 33.3487 311.623 33.5974C314.715 34.5079 314.748 38.0424 311.413 38.727C309.041 39.4275 298.685 38.6927 293.828 37.958C278.675 35.6693 280.372 31.4502 281.338 29.8096C282.229 28.3584 283.97 27.7172 284.522 26.2408C285.696 23.117 282.936 21.2573 279.885 21.0657C277.917 20.9607 274.894 21.433 271.54 23.4639C266.489 26.6059 264.845 30.9277 263.094 32.7554C258.842 37.5587 255.059 38.727 251.856 38.727C247.87 38.727 245.809 33.8279 248.724 31.0966C250.23 29.7412 256.256 23.3954 253.47 22.1381C252.145 21.7091 249.911 22.2248 247.715 27.3407C245.609 33.0932 238.761 38.727 230.91 38.727C217.501 38.727 212.603 33.5199 209.96 33.5723C206.473 33.5723 202.413 38.727 193.5 38.727C183.294 38.727 181.195 33.5723 178.287 33.5723C174.776 33.4674 171.767 38.727 165.656 38.727C161.222 38.727 160.351 36.128 157.432 36.128C155.854 36.128 153.184 38.727 149.103 38.727C145.697 38.727 144.075 36.2352 140.382 36.1736C136.14 36.112 135.285 38.727 123.55 38.727C117.464 38.727 113.705 37.148 110.078 36.3402C105.864 35.4434 102.161 35.2084 97.2535 35.772C91.9876 36.3721 89.3755 38.727 86.5186 38.727C81.165 38.711 80.1696 34.1588 81.292 31.5643C81.9295 30.1838 85.7495 25.5266 85.3661 22.7382C84.8141 17.3417 76.1463 18.558 74.1162 18.8249C66.43 19.8472 62.0764 24.8558 58.0139 28.0412C54.0645 31.3225 48.48 31.9956 42.7454 30.5056C38.7036 29.6157 30.3915 31.7218 23.8369 32.5706C22.9755 32.6733 22.2387 33.0087 21.4789 33.8051C18.9314 36.7897 15.7465 36.4132 14.7696 36.4315C12.878 36.5455 11.6078 37.8234 11.1713 38.3619C9.89638 39.9409 8.34435 42.0561 6.9309 43.7972C5.79921 45.1868 1.84292 46.0174 0.320913 42.565C-1.07407 38.8867 2.21938 31.5735 7.47364 28.5364C15.6772 24.1165 19.264 28.3903 24.8485 26.9414C28.2205 25.9419 29.6455 23.5141 34.715 21.967C39.3942 20.4815 45.0041 21.1159 47.3668 22.0081C49.2583 22.7223 51.8612 22.0583 52.5772 19.3315C53.2493 16.7622 52.7573 15.7992 56.2448 11.4889C59.9655 7.2926 65.1828 6.53047 66.363 5.97371C70.9198 3.85846 72.2408 2.18589 74.883 1.36899C79.0887 0.253183 84.5116 -1.81871 87.551 3.32908C89.0037 6.16082 83.1027 7.3679 81.4121 7.91554C78.1603 8.89672 77.1741 9.0747 77.4097 10.2704C77.6106 11.2858 79.5945 11.9635 82.0426 12.016C86.1953 12.1369 89.9691 11.8357 91.729 11.5345C96.5952 10.8454 98.1242 11.8243 99.2997 13.3098C102.436 17.6977 96.8123 21.8118 96.616 24.6299C96.3181 26.7999 99.951 29.8073 102.656 26.5763C104.697 24.1393 105.914 17.9852 111.958 14.2339C119.37 9.66341 131.458 10.4757 136.585 15.4501C138.782 17.6156 138.726 20.7029 134.976 23.4274C132.869 24.9356 128.867 27.0691 124.086 27.6715C121.199 28.0344 119.716 28.1233 119.211 29.7046C118.769 31.2358 122.797 32.8399 130.897 30.8182C136.341 29.0817 142.142 24.6481 145.985 16.6823C147.641 13.061 153.898 12.8443 154.431 17.271C154.69 19.3908 150.956 25.8598 155.242 26.542C158.455 26.9231 160.935 19.6007 162.088 17.4809C163.843 14.154 167.963 14.6081 169.275 17.0702C171.118 20.5363 166.624 25.6179 168.668 27.1148C169.751 27.8792 171.739 27.9043 174.61 25.214C176.566 23.2174 179.765 18.761 179.844 17.3714C179.901 16.1506 179.086 15.3178 177.347 15.3178C175.566 15.2881 174.566 13.2094 174.049 12.3354C171.559 7.65313 177.73 7.41126 180.811 8.33083C183.8 9.21161 187.262 7.86762 187.952 6.26806C188.511 4.92407 190.976 2.73809 192.84 1.96911C193.761 1.59718 198.366 0.129965 200.616 0.129965L200.62 0.134529ZM230.139 16.5157C218.282 18.5443 223.007 32.2443 232.548 31.1217C242.895 29.2095 239.287 15.6509 230.139 16.5157ZM115.869 21.0885C115.869 23.5871 118.769 23.4388 119.97 23.5346C124.971 23.7947 128.567 20.5956 127.786 18.7405C126.827 16.4929 123.262 16.4929 120.675 16.9881C118.428 17.417 115.864 19.5003 115.866 21.0885H115.869Z" fill="#050A0A"/>
</svg>
