<svg preserveAspectRatio="none" width="100%" height="100%" overflow="visible" style="display: block;" viewBox="0 0 32 32" fill="none" xmlns="http://www.w3.org/2000/svg">
<g id="Frame 2147230966">
<rect width="32" height="32" rx="16" fill="#F2F2F2"/>
<path id="Vector" d="M12.433 21.8886C12.5579 21.9657 12.6994 22 12.841 22C12.9825 22 13.1407 21.9572 13.2656 21.88L21.592 16.7385C21.8418 16.5842 22 16.3014 22 16.0015C22 15.7016 21.8501 15.4188 21.592 15.2646L13.2656 10.123C13.1391 10.044 12.9942 10.0015 12.8463 10C12.6983 9.99853 12.5527 10.038 12.4246 10.1144C12.1665 10.2687 12 10.5515 12 10.86V21.1431C12 21.4516 12.1582 21.7344 12.4246 21.8886H12.433Z" fill="#A3A3A3"/>
</g>
</svg>
