<svg preserveAspectRatio="none" width="100%" height="100%" overflow="visible" style="display: block;" viewBox="0 0 32 32" fill="none" xmlns="http://www.w3.org/2000/svg">
<g id="Frame 2147230966">
<rect width="32" height="32" rx="16" fill="#F2F2F2"/>
<path id="Vector" d="M11.918 22.87C12.0679 22.96 12.2377 23 12.4076 23C12.5775 23 12.7673 22.95 12.9172 22.86L22.9088 16.8616C23.2086 16.6816 23.3984 16.3517 23.3984 16.0018C23.3984 15.6519 23.2186 15.3219 22.9088 15.142L12.9172 9.14351C12.7653 9.05136 12.5915 9.00181 12.414 9.00005C12.2364 8.99829 12.0616 9.04439 11.908 9.13351C11.5983 9.31346 11.3984 9.64338 11.3984 10.0033V22.0003C11.3984 22.3602 11.5883 22.6901 11.908 22.87H11.918Z" fill="#A3A3A3"/>
</g>
</svg>
