<svg width="360" height="44" viewBox="0 0 360 44" fill="none" xmlns="http://www.w3.org/2000/svg">
<path d="M24.7021 16.248C26.8994 16.2627 28.9795 17.5664 28.9795 21.4189C28.9941 25.0225 27.2803 27.1465 24.6143 27.1465C22.4756 27.1465 21.0254 25.8135 20.8057 24.0117H22.9736C23.1494 24.7881 23.7646 25.2568 24.6143 25.2568C26.0645 25.2568 26.8262 23.9678 26.8262 21.8438H26.7383C26.2402 22.7812 25.2002 23.3379 24.0137 23.3379C22.1094 23.3379 20.7031 21.9023 20.6885 19.9248C20.6885 17.7861 22.2998 16.2334 24.7021 16.248ZM24.7168 17.9766C23.6328 17.9766 22.8271 18.8115 22.8418 19.8662C22.8418 20.9062 23.6182 21.7266 24.7021 21.7266C25.7715 21.7266 26.6064 20.877 26.6064 19.8516C26.5918 18.8408 25.8008 17.9766 24.7168 17.9766ZM31.9127 25.7109C31.2242 25.7109 30.6676 25.1543 30.6822 24.4805C30.6676 23.8066 31.2242 23.2646 31.9127 23.2646C32.5572 23.2646 33.1285 23.8066 33.1285 24.4805C33.1285 25.1543 32.5572 25.7109 31.9127 25.7109ZM31.9127 20.1299C31.2242 20.1299 30.6676 19.5732 30.6822 18.8994C30.6676 18.2256 31.2242 17.6836 31.9127 17.6836C32.5572 17.6836 33.1285 18.2256 33.1285 18.8994C33.1285 19.5732 32.5572 20.1299 31.9127 20.1299ZM34.8313 25.125V23.3818L39.3137 16.3945H42.0822V23.3525H43.4299V25.125H42.0822V27H39.9875V25.125H34.8313ZM37.0578 23.3525H40.0168V18.8115H39.9143L37.0578 23.2646V23.3525ZM49.4393 16.3945V27H47.2273V18.4893H47.1688L44.7371 20.0127V18.0645L47.3592 16.3945H49.4393Z" fill="white" fill-opacity="0.8"/>
<g clip-path="url(#clip0_219_32647)">
<path d="M273.342 27.7273C273.342 28.4302 272.772 29 272.069 29C271.367 29 270.797 28.4302 270.797 27.7273C270.797 27.0244 271.367 26.4545 272.069 26.4545C272.772 26.4545 273.342 27.0244 273.342 27.7273Z" fill="white" fill-opacity="0.8"/>
<path d="M275.748 25.4453C276.14 25.1357 276.212 24.5599 275.842 24.2236C275.459 23.875 275.027 23.5813 274.558 23.3525C273.818 22.9908 273.006 22.8005 272.182 22.7956C271.358 22.7906 270.543 22.9713 269.799 23.3241C269.328 23.5472 268.892 23.8357 268.505 24.1797C268.131 24.5116 268.196 25.0882 268.584 25.4024C268.973 25.7166 269.538 25.6447 269.938 25.3443C270.135 25.1954 270.349 25.0664 270.574 24.9596C271.073 24.7232 271.619 24.6021 272.171 24.6054C272.723 24.6087 273.268 24.7363 273.764 24.9787C273.988 25.0881 274.199 25.2197 274.396 25.371C274.791 25.6762 275.355 25.7548 275.748 25.4453Z" fill="white" fill-opacity="0.8"/>
<path d="M278.26 22.8276C278.644 22.524 278.713 21.9621 278.372 21.6103C277.675 20.8922 276.858 20.2984 275.955 19.8573C274.786 19.2859 273.502 18.9852 272.201 18.9774C270.899 18.9696 269.613 19.255 268.436 19.8123C267.528 20.2426 266.704 20.8266 265.999 21.5363C265.653 21.884 265.715 22.4466 266.097 22.7548C266.478 23.063 267.033 22.9988 267.388 22.6603C267.919 22.1531 268.529 21.7327 269.197 21.4165C270.132 20.9733 271.155 20.7464 272.19 20.7526C273.225 20.7588 274.246 20.9979 275.176 21.4523C275.839 21.7764 276.444 22.2041 276.97 22.7177C277.32 23.0604 277.875 23.1312 278.26 22.8276Z" fill="white" fill-opacity="0.8"/>
<path d="M280.864 20.2524C281.265 19.936 281.337 19.3512 280.988 18.9774C280.055 17.9758 278.308 16.7418 277.072 16.1384C275.56 15.3993 273.9 15.0103 272.216 15.0002C270.532 14.9901 268.868 15.3593 267.347 16.0802C266.104 16.6688 264.491 17.5455 263.545 18.5359C263.192 18.9055 263.257 19.4911 263.654 19.8123C264.051 20.1336 264.631 20.0681 264.99 19.7043C265.757 18.927 267.148 18.222 268.139 17.7524C269.409 17.1504 270.799 16.8422 272.205 16.8506C273.611 16.859 274.997 17.1839 276.26 17.801C277.246 18.2824 278.772 19.342 279.53 20.1285C279.884 20.4965 280.463 20.5689 280.864 20.2524Z" fill="white" fill-opacity="0.6"/>
</g>
<path d="M287.191 25C287.191 24.4477 287.639 24 288.191 24C288.744 24 289.191 24.4477 289.191 25V28C289.191 28.5523 288.744 29 288.191 29C287.639 29 287.191 28.5523 287.191 28V25Z" fill="white" fill-opacity="0.8"/>
<path d="M291.191 22C291.191 21.4477 291.639 21 292.191 21C292.744 21 293.191 21.4477 293.191 22V28C293.191 28.5523 292.744 29 292.191 29C291.639 29 291.191 28.5523 291.191 28V22Z" fill="white" fill-opacity="0.8"/>
<path d="M295.191 19C295.191 18.4477 295.639 18 296.191 18C296.744 18 297.191 18.4477 297.191 19V28C297.191 28.5523 296.744 29 296.191 29C295.639 29 295.191 28.5523 295.191 28V19Z" fill="white" fill-opacity="0.6"/>
<path d="M299.191 16C299.191 15.4477 299.639 15 300.191 15C300.744 15 301.191 15.4477 301.191 16V28C301.191 28.5523 300.744 29 300.191 29C299.639 29 299.191 28.5523 299.191 28V16Z" fill="white" fill-opacity="0.6"/>
<path d="M331.191 17.1797C330.799 17.2497 330.448 17.3796 330.139 17.5674C329.654 17.8668 329.289 18.2675 329.042 18.7695C328.795 19.2627 328.672 19.8132 328.672 20.4209C328.672 21.0022 328.791 21.5263 329.029 21.9932C329.276 22.46 329.61 22.8256 330.033 23.0898C330.378 23.3055 330.764 23.433 331.191 23.4727V25.1055C331.094 25.0747 330.999 25.0375 330.905 24.9922C330.624 24.8425 330.381 24.605 330.179 24.2793L328.712 25.1113C329.038 25.6486 329.456 26.0804 329.967 26.4062C330.322 26.6266 330.73 26.7697 331.191 26.8369V30.2578H315.449C310.889 30.2578 307.191 26.5606 307.191 22C307.191 17.4394 310.889 13.7422 315.449 13.7422H331.191V17.1797ZM314.16 17.2422C313.987 17.2424 313.833 17.3511 313.773 17.5137L312.107 22.0889C312.01 22.3576 312.208 22.6415 312.494 22.6416H313.861C314.004 22.6416 314.103 22.7837 314.055 22.918L312.583 26.9639C312.501 27.1901 312.807 27.35 312.945 27.1533L316.91 21.4902C317.101 21.2171 316.906 20.8418 316.572 20.8418H315.105C314.962 20.8418 314.863 20.6998 314.912 20.5654L315.921 17.7949C316.019 17.5263 315.819 17.2422 315.533 17.2422H314.16ZM324.451 17.1182C323.289 17.1182 322.368 17.5412 321.689 18.3867C321.02 19.2235 320.686 20.448 320.686 22.0596C320.686 23.5921 321.003 24.7814 321.637 25.627C322.28 26.4636 323.178 26.8817 324.332 26.8818C325.054 26.8818 325.658 26.7321 326.143 26.4326C326.627 26.1332 326.993 25.7325 327.239 25.2305C327.486 24.7285 327.609 24.1779 327.609 23.5791C327.609 22.9891 327.486 22.4648 327.239 22.0068C327.001 21.54 326.671 21.1744 326.248 20.9102C325.825 20.6459 325.341 20.5137 324.795 20.5137C324.434 20.5137 324.072 20.5924 323.711 20.751C323.359 20.9095 323.055 21.1519 322.8 21.4775C322.639 21.6848 322.516 21.9324 322.43 22.2188V21.874C322.439 20.8437 322.619 20.0733 322.972 19.5625C323.324 19.0517 323.817 18.7959 324.451 18.7959C324.777 18.7959 325.081 18.8708 325.363 19.0205C325.654 19.1614 325.9 19.395 326.103 19.7207L327.557 18.8887C327.24 18.3514 326.825 17.9235 326.314 17.6064C325.804 17.2806 325.182 17.1182 324.451 17.1182ZM324.372 22.1387C324.839 22.1387 325.196 22.2837 325.442 22.5742C325.689 22.8561 325.812 23.2353 325.812 23.7109C325.812 24.16 325.689 24.5297 325.442 24.8203C325.196 25.1022 324.834 25.2432 324.358 25.2432C323.901 25.2431 323.544 25.1021 323.289 24.8203C323.034 24.5297 322.905 24.1601 322.905 23.7109C322.905 23.3938 322.968 23.1206 323.091 22.8916C323.214 22.654 323.385 22.469 323.605 22.3369C323.826 22.2048 324.081 22.1387 324.372 22.1387ZM331.191 21.707C331.058 21.6396 330.94 21.5504 330.839 21.4385C330.592 21.1478 330.469 20.7646 330.469 20.2891C330.469 19.831 330.597 19.4606 330.853 19.1787C330.951 19.0705 331.063 18.9826 331.191 18.916V21.707Z" fill="white" fill-opacity="0.8"/>
<path d="M331.742 13.7422C336.303 13.7423 340 17.4395 340 22C340 26.5605 336.303 30.2577 331.742 30.2578H331.191V26.8369C331.194 26.8373 331.197 26.8385 331.199 26.8389C331.399 26.8676 331.61 26.8818 331.83 26.8818C332.993 26.8818 333.909 26.4635 334.578 25.627C335.256 24.7814 335.596 23.5522 335.596 21.9404C335.596 20.3992 335.274 19.2098 334.631 18.373C333.997 17.5364 333.098 17.1182 331.936 17.1182C331.676 17.1182 331.43 17.139 331.199 17.1797C331.197 17.1801 331.194 17.1802 331.191 17.1807V13.7422H331.742ZM333.852 22.126C333.834 23.1472 333.649 23.9179 333.297 24.4375C332.953 24.9482 332.464 25.204 331.83 25.2041C331.615 25.2041 331.406 25.173 331.206 25.1113C331.201 25.1098 331.196 25.107 331.191 25.1055V23.4727C331.194 23.4729 331.197 23.4734 331.199 23.4736C331.293 23.4821 331.389 23.4863 331.486 23.4863C331.856 23.4863 332.217 23.4074 332.569 23.249C332.922 23.0905 333.221 22.8521 333.468 22.5352C333.636 22.3206 333.764 22.0673 333.852 21.7764V22.126ZM331.922 18.7568C332.38 18.7568 332.737 18.8978 332.992 19.1797C333.248 19.4615 333.376 19.8311 333.376 20.2891C333.376 20.606 333.314 20.8834 333.19 21.1211C333.067 21.3499 332.896 21.531 332.676 21.6631C332.456 21.7951 332.2 21.8613 331.909 21.8613C331.637 21.8613 331.4 21.8116 331.199 21.7119C331.196 21.7105 331.194 21.7086 331.191 21.707V18.917C331.194 18.9156 331.197 18.9144 331.199 18.9131C331.403 18.809 331.644 18.7569 331.922 18.7568Z" fill="white" fill-opacity="0.6"/>
<defs>
<clipPath id="clip0_219_32647">
<rect width="18" height="18" fill="white" transform="translate(263.191 13)"/>
</clipPath>
</defs>
</svg>
