<svg preserveAspectRatio="none" width="100%" height="100%" overflow="visible" style="display: block;" viewBox="0 0 8.80859 16.5156" fill="none" xmlns="http://www.w3.org/2000/svg">
<path id="Subtract" d="M0.550781 0C5.11127 0.000142779 8.80859 3.69729 8.80859 8.25781C8.80854 12.8183 5.11124 16.5155 0.550781 16.5156H0V13.0947C0.00264139 13.0951 0.00516764 13.0963 0.0078125 13.0967C0.207972 13.1254 0.418548 13.1396 0.638672 13.1396C1.80115 13.1396 2.71735 12.7213 3.38672 11.8848C4.0649 11.0392 4.40426 9.81001 4.4043 8.19824C4.40426 6.65697 4.08238 5.46759 3.43945 4.63086C2.80527 3.79421 1.90674 3.37598 0.744141 3.37598C0.484408 3.37598 0.238824 3.3968 0.0078125 3.4375C0.00522998 3.43796 0.00257893 3.43802 0 3.43848V0H0.550781ZM2.66016 8.38379C2.64249 9.40499 2.45755 10.1757 2.10547 10.6953C1.762 11.206 1.27266 11.4619 0.638672 11.4619C0.423157 11.4619 0.214755 11.4308 0.0146484 11.3691C0.00963846 11.3676 0.00500117 11.3649 0 11.3633V9.73047C0.00260996 9.73072 0.00519888 9.73121 0.0078125 9.73145C0.101475 9.73989 0.19732 9.74414 0.294922 9.74414C0.664631 9.74414 1.02581 9.66518 1.37793 9.50684C1.73012 9.34835 2.02979 9.10988 2.27637 8.79297C2.44455 8.57839 2.57216 8.32513 2.66016 8.03418V8.38379ZM0.730469 5.01465C1.1885 5.01465 1.54534 5.15564 1.80078 5.4375C2.05615 5.71934 2.18456 6.08893 2.18457 6.54688C2.18454 6.86378 2.12224 7.14119 1.99902 7.37891C1.87577 7.6077 1.70436 7.78884 1.48438 7.9209C1.26423 8.05293 1.00833 8.11913 0.717773 8.11914C0.445377 8.11912 0.208549 8.06944 0.0078125 7.96973C0.00506887 7.96836 0.00263846 7.96641 0 7.96484V5.1748C0.00258044 5.17346 0.00521969 5.17223 0.0078125 5.1709C0.211243 5.0668 0.45227 5.01472 0.730469 5.01465Z" fill="black" fill-opacity="0.6"/>
</svg>
