<svg width="24" height="16.5156" viewBox="0 0 24 16.5156" fill="none" xmlns="http://www.w3.org/2000/svg">
<path id="Subtract" d="M24 3.4248C23.9759 3.42856 23.9515 3.43233 23.9277 3.43652C23.5322 3.50625 23.1785 3.63619 22.8672 3.8252C22.3829 4.12465 22.0171 4.52541 21.7705 5.02734C21.524 5.52051 21.4014 6.07109 21.4014 6.67871C21.4014 7.26002 21.52 7.78416 21.7578 8.25098C22.0044 8.71775 22.339 9.08342 22.7617 9.34766C23.1088 9.56457 23.4976 9.69259 23.9277 9.73145C23.9515 9.73359 23.976 9.73278 24 9.73438V11.3857C23.9786 11.3799 23.9568 11.3757 23.9355 11.3691C23.8331 11.3376 23.7322 11.2977 23.6338 11.25C23.3521 11.1003 23.1097 10.8628 22.9072 10.5371L21.4404 11.3691C21.7663 11.9064 22.1854 12.3382 22.6963 12.6641C23.0531 12.8855 23.4635 13.0299 23.9277 13.0967C23.9514 13.1001 23.976 13.1005 24 13.1035V16.5156H8.25781C3.69723 16.5156 4.94799e-05 12.8184 0 8.25781C0 3.6972 3.6972 0 8.25781 0H24V3.4248ZM6.96875 3.5C6.79584 3.50018 6.64132 3.60887 6.58203 3.77148L4.91602 8.34668C4.81833 8.61544 5.01687 8.89929 5.30273 8.89941H6.66992C6.81287 8.89941 6.91188 9.0415 6.86328 9.17578L5.3916 13.2217C5.30924 13.4479 5.61557 13.6078 5.75391 13.4111L9.71875 7.74805C9.90975 7.47487 9.71415 7.09961 9.38086 7.09961H7.91406C7.77093 7.09961 7.67197 6.95759 7.7207 6.82324L8.72949 4.05273C8.82713 3.78416 8.62766 3.5 8.3418 3.5H6.96875ZM17.1797 3.37598C16.0172 3.37608 15.0971 3.79904 14.4189 4.64453C13.7496 5.48131 13.415 6.70556 13.415 8.31738C13.4151 9.84992 13.732 11.0392 14.3662 11.8848C15.0092 12.7213 15.9078 13.1396 17.0615 13.1396C17.7836 13.1396 18.3867 12.9898 18.8711 12.6904C19.3555 12.391 19.7211 11.9903 19.9678 11.4883C20.2144 10.9863 20.3378 10.4358 20.3379 9.83691C20.3379 9.24685 20.2143 8.72263 19.9678 8.26465C19.73 7.79781 19.3994 7.43222 18.9766 7.16797C18.5538 6.9038 18.0695 6.77148 17.5234 6.77148C17.1625 6.77151 16.8014 6.85036 16.4404 7.00879C16.0882 7.16731 15.7837 7.40954 15.5283 7.73535C15.3671 7.94268 15.2441 8.19016 15.1582 8.47656V8.13184C15.167 7.10162 15.348 6.33113 15.7002 5.82031C16.0524 5.30955 16.5457 5.05382 17.1797 5.05371C17.5056 5.05371 17.8099 5.12858 18.0918 5.27832C18.3825 5.41925 18.6294 5.65262 18.832 5.97852L20.2852 5.14648C19.9681 4.60918 19.5538 4.18135 19.043 3.86426C18.5321 3.53844 17.9107 3.37598 17.1797 3.37598ZM17.1006 8.39648C17.5673 8.39648 17.9243 8.54157 18.1709 8.83203C18.4175 9.11389 18.541 9.49311 18.541 9.96875C18.541 10.4179 18.4174 10.7875 18.1709 11.0781C17.9243 11.3599 17.5634 11.5009 17.0879 11.501C16.6299 11.501 16.273 11.36 16.0176 11.0781C15.7622 10.7875 15.6338 10.4179 15.6338 9.96875C15.6338 9.65165 15.696 9.37843 15.8193 9.14941C15.9426 8.91167 16.1148 8.72682 16.335 8.59473C16.555 8.46276 16.8101 8.39652 17.1006 8.39648ZM24 7.99902C23.976 7.98888 23.9508 7.98118 23.9277 7.96973C23.7911 7.90181 23.6708 7.81042 23.5674 7.69629C23.3209 7.40567 23.1983 7.02235 23.1982 6.54688C23.1982 6.08885 23.3256 5.71839 23.5811 5.43652C23.6811 5.32616 23.7966 5.23705 23.9277 5.16992C23.9509 5.15806 23.9759 5.14918 24 5.13867V7.99902Z" fill="white" fill-opacity="0.8"/>
</svg>
