<svg width="24" height="16.5156" viewBox="0 0 24 16.5156" fill="none" xmlns="http://www.w3.org/2000/svg">
<path id="Subtract" d="M24 3.4375C23.6075 3.50753 23.2566 3.63739 22.9473 3.8252C22.4629 4.12466 22.0972 4.52535 21.8506 5.02734C21.604 5.52054 21.4805 6.07104 21.4805 6.67871C21.4805 7.26005 21.6001 7.78414 21.8379 8.25098C22.0845 8.7178 22.419 9.08341 22.8418 9.34766C23.1868 9.56329 23.5729 9.6908 24 9.73047V11.3633C23.9029 11.3325 23.8073 11.2953 23.7139 11.25C23.4321 11.1003 23.1898 10.8629 22.9873 10.5371L21.5205 11.3691C21.8464 11.9064 22.2646 12.3382 22.7754 12.6641C23.1303 12.8844 23.5388 13.0275 24 13.0947V16.5156H8.25781C3.69723 16.5156 4.94799e-05 12.8184 0 8.25781C0 3.6972 3.6972 0 8.25781 0H24V3.4375ZM6.96875 3.5C6.79584 3.50018 6.64132 3.60887 6.58203 3.77148L4.91602 8.34668C4.81833 8.61544 5.01687 8.89929 5.30273 8.89941H6.66992C6.81287 8.89941 6.91188 9.0415 6.86328 9.17578L5.3916 13.2217C5.30924 13.4479 5.61557 13.6078 5.75391 13.4111L9.71875 7.74805C9.90975 7.47487 9.71415 7.09961 9.38086 7.09961H7.91406C7.77093 7.09961 7.67197 6.95759 7.7207 6.82324L8.72949 4.05273C8.82713 3.78416 8.62766 3.5 8.3418 3.5H6.96875ZM17.2598 3.37598C16.0971 3.37601 15.1763 3.79898 14.498 4.64453C13.8289 5.4813 13.4941 6.70578 13.4941 8.31738C13.4942 9.84991 13.8112 11.0392 14.4453 11.8848C15.0882 12.7215 15.9869 13.1396 17.1406 13.1396C17.8629 13.1396 18.4667 12.9899 18.9512 12.6904C19.4356 12.391 19.8012 11.9903 20.0479 11.4883C20.2944 10.9863 20.4179 10.4358 20.418 9.83691C20.418 9.24689 20.2944 8.7226 20.0479 8.26465C19.81 7.79782 19.4794 7.43222 19.0566 7.16797C18.6339 6.90374 18.1496 6.7715 17.6035 6.77148C17.2424 6.77148 16.8807 6.85024 16.5195 7.00879C16.1674 7.16729 15.8637 7.40969 15.6084 7.73535C15.4472 7.94266 15.3242 8.19019 15.2383 8.47656V8.13184C15.2471 7.10153 15.428 6.33113 15.7803 5.82031C16.1326 5.30947 16.6256 5.05375 17.2598 5.05371C17.5857 5.05371 17.89 5.12858 18.1719 5.27832C18.4624 5.41924 18.7086 5.65281 18.9111 5.97852L20.3652 5.14648C20.0481 4.60918 19.6339 4.18135 19.123 3.86426C18.6122 3.53836 17.9908 3.37598 17.2598 3.37598ZM17.1807 8.39648C17.6474 8.39649 18.0044 8.54149 18.251 8.83203C18.4976 9.11389 18.6211 9.49311 18.6211 9.96875C18.6211 10.4178 18.4974 10.7875 18.251 11.0781C18.0043 11.36 17.6426 11.501 17.167 11.501C16.7092 11.5009 16.353 11.3599 16.0977 11.0781C15.8422 10.7875 15.7139 10.4179 15.7139 9.96875C15.7139 9.65165 15.7761 9.37843 15.8994 9.14941C16.0227 8.9118 16.194 8.72679 16.4141 8.59473C16.6343 8.4626 16.89 8.39648 17.1807 8.39648ZM24 7.96484C23.8667 7.89737 23.7489 7.80819 23.6475 7.69629C23.4009 7.40565 23.2774 7.02242 23.2773 6.54688C23.2773 6.08885 23.4057 5.71839 23.6611 5.43652C23.7592 5.32835 23.872 5.24046 24 5.17383V7.96484Z" fill="black" fill-opacity="0.8"/>
</svg>
