<svg preserveAspectRatio="none" width="100%" height="100%" overflow="visible" style="display: block;" viewBox="0 0 9 16.5156" fill="none" xmlns="http://www.w3.org/2000/svg">
<path id="Subtract" d="M0.742188 0C5.3028 0 9 3.6972 9 8.25781C8.99995 12.8184 5.30277 16.5156 0.742188 16.5156H0V13.1035C0.180268 13.1263 0.368399 13.1396 0.564453 13.1396C1.72695 13.1396 2.64313 12.7214 3.3125 11.8848C3.99069 11.0392 4.33005 9.81002 4.33008 8.19824C4.33004 6.65698 4.00815 5.46759 3.36523 4.63086C2.73105 3.79421 1.83252 3.37598 0.669922 3.37598C0.434844 3.37598 0.21156 3.39335 0 3.42676V0H0.742188ZM2.58594 8.38379C2.56827 9.405 2.38333 10.1757 2.03125 10.6953C1.68778 11.206 1.19846 11.4619 0.564453 11.4619C0.370049 11.4619 0.181938 11.435 0 11.3848V9.73438C0.0724594 9.73933 0.145952 9.74414 0.220703 9.74414C0.59043 9.74414 0.951579 9.6652 1.30371 9.50684C1.65592 9.34834 1.95557 9.1099 2.20215 8.79297C2.37034 8.57838 2.49794 8.32515 2.58594 8.03418V8.38379ZM0.65625 5.01465C1.11428 5.01465 1.47112 5.15564 1.72656 5.4375C1.98192 5.71934 2.11034 6.08894 2.11035 6.54688C2.11032 6.86379 2.04802 7.14118 1.9248 7.37891C1.80155 7.60772 1.63015 7.78883 1.41016 7.9209C1.19 8.05295 0.934133 8.11913 0.643555 8.11914C0.400091 8.11913 0.18624 8.07669 0 7.99707V5.1416C0.189099 5.05823 0.407283 5.01471 0.65625 5.01465Z" fill="white" fill-opacity="0.6"/>
</svg>
